<svg class="negative" xmlns="http://www.w3.org/2000/svg" height="190" width="194" viewBox="0 0 194 190">
	<defs>
		<style>.cls-1,.cls-3,.cls-4{fill:#fff;}.cls-2,.cls-5{fill:#e6e6e6;}.cls-3,.cls-5,.cls-6{stroke:#000;}.cls-3,.cls-4,.cls-5,.cls-6,.cls-7{stroke-miterlimit:10;stroke-width:3.5px;}.cls-4,.cls-7{stroke:#1a171b;}.cls-6,.cls-7{fill:none;}.cls-8{fill:#80197f;}.cls-9{fill:#00a6e2;}.cls-10{fill:#ea690b;}.cls-11{fill:#e2006a;}.cls-12{fill:#7ab41d;}</style>
	</defs>
	<path class="cls-1" style="fill:#fff" d="m49.7 102h94a4.8 4.8 0 0 1 4.8 4.8v44.1a24 24 0 0 1 -24 24h-56.1a24 24 0 0 1 -24 -24v-44.1a4.8 4.8 0 0 1 4.83 -4.8z"/>
	<path class="cls-2" style="fill:#e6e6e6" d="m109 175a24 24 0 0 0 24 -24v-44.1a4.8 4.8 0 0 0 -4.8 -4.8h15.3a4.8 4.8 0 0 1 4.8 4.8v44.1a24 24 0 0 1 -24 24z"/>
	<path class="cls-1" style="fill:#fff" d="m107 188h-20.8a13.4 13.4 0 0 1 -13.4 -13.4h48a13.4 13.4 0 0 1 -13.4 13.4z"/>
	<path class="cls-2" style="fill:#e6e6e6" d="m121 175h-48.3a13.4 13.4 0 0 0 1.81 6.72h44.4a13.4 13.4 0 0 0 1.83 -6.72z"/>
	<rect style="stroke:#000;stroke-width:3.5px;stroke-miterlimit:10;fill:#fff" class="cls-3" rx="4.32" ry="4.32" height="8.64" width="36.5" y="84.6" x="78.5"/>
	<rect style="stroke:#000;stroke-width:3.5px;stroke-miterlimit:10;fill:#fff" class="cls-3" rx="4.32" ry="4.32" height="8.64" width="36.5" y="93.2" x="78.5"/>
	<path class="cls-1" style="fill:#fff" d="m96.7 2.09a51.8 51.8 0 0 1 52.3 51.8v25.9a4.8 4.8 0 0 1 -4.8 4.8h-94.3a4.8 4.8 0 0 1 -4.8 -4.8v-25.9a51.8 51.8 0 0 1 51.8 -51.8z"/>
	<path class="cls-2" style="fill:#e6e6e6" d="m96.7 2.09c-1.46 0-2.89.08-4.32.19a51.8 51.8 0 0 1 47.6 51.6v30.7h3.82a4.8 4.8 0 0 0 4.8 -4.8v-25.9a51.8 51.8 0 0 0 -52.3 -51.8z"/>
	<path class="cls-4" style="stroke:#1a171b;stroke-width:3.5px;stroke-miterlimit:10;fill:#fff" d="m44.9 76v-22.1h-3.84a5.76 5.76 0 0 0 -5.76 5.76v10.6a5.76 5.76 0 0 0 5.76 5.76z"/>
	<path class="cls-5" style="stroke:#000;stroke-width:3.5px;stroke-miterlimit:10;fill:#e6e6e6" d="m158 70.2v-10.6a5.76 5.76 0 0 0 -5.76 -5.76h-3.84v22.1h3.84a5.76 5.76 0 0 0 5.76 -5.76z"/>
	<path class="cls-3" style="stroke:#000;stroke-width:3.5px;stroke-miterlimit:10;fill:#fff" d="m44.9 139v-27.8h-5.76a5.76 5.76 0 0 0 -5.76 5.76v16.3a5.76 5.76 0 0 0 5.76 5.76z"/>
	<path class="cls-5" style="stroke:#000;stroke-width:3.5px;stroke-miterlimit:10;fill:#e6e6e6" d="m160 134v-16.3a5.76 5.76 0 0 0 -5.76 -5.76h-5.76v27.8h5.76a5.76 5.76 0 0 0 5.76 -5.76z"/>
	<path d="m111 69.3a14.4 14.4 0 0 0 -28.8 0z"/>
	<line style="stroke:#000;stroke-width:3.5px;stroke-miterlimit:10;fill:none" x1="65.1" class="cls-6" y1="41.4" x2="83.3" y2="41.4"/>
	<line style="stroke:#000;stroke-width:3.5px;stroke-miterlimit:10;fill:none" x1="110" class="cls-6" y1="41.4" x2="128" y2="41.4"/>
	<path class="cls-3" style="stroke:#000;stroke-width:3.5px;stroke-miterlimit:10;fill:#fff" d="m33.4 120v10.6h-15.4v27.8h-10.5v-30.7a7.68 7.68 0 0 1 7.67 -7.69z"/>
	<path class="cls-3" style="stroke:#000;stroke-width:3.5px;stroke-miterlimit:10;fill:#fff" d="m160 120v10.6h15.4v27.8h10.6v-30.7a7.68 7.68 0 0 0 -7.68 -7.68z"/>
	<path class="cls-6" style="stroke:#000;stroke-width:3.5px;stroke-miterlimit:10;fill:none" d="m20.6 178a11.4 11.4 0 0 0 0 -15.9 10.9 10.9 0 0 0 -15.6 0 11.4 11.4 0 0 0 0 15.9"/>
	<path class="cls-6" style="stroke:#000;stroke-width:3.5px;stroke-miterlimit:10;fill:none" d="m189 178a11.4 11.4 0 0 0 0 -15.9 10.9 10.9 0 0 0 -15.6 0 11.4 11.4 0 0 0 0 15.9"/>
	<path class="cls-6" style="stroke:#000;stroke-width:3.5px;stroke-miterlimit:10;fill:none" d="m96.7 2.09a51.8 51.8 0 0 1 52.3 51.8v25.9a4.8 4.8 0 0 1 -4.8 4.8h-94.3a4.8 4.8 0 0 1 -4.8 -4.8v-25.9a51.8 51.8 0 0 1 51.8 -51.8z"/>
	<path class="cls-7" style="stroke:#1a171b;stroke-width:3.5px;stroke-miterlimit:10;fill:none" d="m49.7 102h94a4.8 4.8 0 0 1 4.8 4.8v44.1a24 24 0 0 1 -24 24h-56.1a24 24 0 0 1 -24 -24v-44.1a4.8 4.8 0 0 1 4.83 -4.8z"/>
	<path class="cls-6" style="stroke:#000;stroke-width:3.5px;stroke-miterlimit:10;fill:none" d="m107 188h-20.8a13.4 13.4 0 0 1 -13.4 -13.4h48a13.4 13.4 0 0 1 -13.4 13.4z"/>
	<path class="cls-8" style="fill:#80197f" d="m92.1 119h-7.87v7.87h7.87z"/>
	<path class="cls-9" style="fill:#00a6e2" d="m109 136h-7.87v7.85h7.87z"/>
	<path class="cls-10" style="fill:#ea690b" d="m92.1 136h-7.87v7.85h7.87z"/>
	<path class="cls-11" style="fill:#e2006a" d="m101 128h-7.88v7.87h7.87z"/>
	<path class="cls-12" style="fill:#7ab41d" d="m109 119h-7.87v7.87h7.87z"/>
</svg>
